<svg width="112" height="112" viewBox="0 0 112 112" fill="none" xmlns="http://www.w3.org/2000/svg">
<path fill-rule="evenodd" clip-rule="evenodd" d="M104.281 53.2575C104.18 53.2777 104.079 53.4998 104.079 53.6208C104.059 54.4283 104.039 56.5682 104.039 58.0215C104.039 58.0619 104.099 58.1426 104.16 58.1426C104.463 58.1628 105.19 58.183 105.815 58.183C106.683 58.183 107.188 58.0619 107.471 57.9409C108.197 57.5775 108.541 56.7901 108.541 55.922C108.541 53.964 107.168 53.217 105.129 53.217C104.988 53.197 104.584 53.197 104.281 53.2575ZM109.489 62.2809C109.489 60.2825 108.016 59.1721 105.351 59.1721C105.23 59.1721 104.382 59.1519 104.18 59.1923C104.12 59.2125 104.039 59.253 104.039 59.3136C104.039 60.7467 104.019 63.0279 104.079 63.916C104.12 64.2996 104.402 64.8446 104.746 65.0061C105.109 65.208 105.937 65.2483 106.502 65.2483C108.096 65.2483 109.489 64.3602 109.489 62.2809ZM100.163 52.1473C100.365 52.1473 100.971 52.2077 102.525 52.2077C103.999 52.2077 105.169 52.1675 106.603 52.1675C108.359 52.1675 110.781 52.7932 110.781 55.4174C110.781 56.7094 109.873 57.739 108.682 58.2436C108.621 58.2638 108.621 58.3041 108.682 58.3243C110.377 58.7483 111.871 59.798 111.871 61.7763C111.871 63.7143 110.66 64.9455 108.904 65.7127C107.834 66.1769 106.502 66.3384 105.149 66.3384C104.12 66.3384 101.354 66.2173 99.82 66.2578C99.6585 66.1971 99.9613 65.4704 100.103 65.3493C100.466 65.3291 100.748 65.3089 101.132 65.1878C101.677 65.0465 101.738 64.8851 101.818 64.0574C101.859 63.3509 101.859 60.8476 101.859 59.0713C101.859 56.6286 101.879 54.9733 101.859 54.1659C101.839 53.5402 101.617 53.3383 101.173 53.217C100.829 53.1566 100.264 53.0758 99.7998 53.0153C99.6987 52.9143 100.042 52.2279 100.163 52.1473ZM88.5154 64.7034C89 65.0868 89.9487 65.2483 90.7965 65.2483C91.8867 65.2483 92.9767 65.0465 94.0264 64.0977C95.0964 63.1288 95.8432 61.635 95.8432 59.253C95.8432 56.9718 94.9751 55.1146 93.1988 54.0246C92.1895 53.3987 90.8974 53.1364 89.4036 53.1364C88.9596 53.1364 88.5356 53.1566 88.2732 53.2777C88.2126 53.3181 88.0713 53.4998 88.0713 53.6006C88.0309 54.0044 88.0309 57.1131 88.0309 58.93C88.0309 60.8074 88.0309 63.4315 88.0713 63.7343C88.0713 64.0372 88.2126 64.5015 88.5154 64.7034ZM83.933 52.1473C84.3166 52.1473 85.7902 52.2077 86.4967 52.2077C87.7686 52.2077 88.6769 52.1473 91.0791 52.1473C93.0977 52.1473 94.7934 52.6924 96.0046 53.7217C97.4782 54.9936 98.2454 56.7499 98.2454 58.8896C98.2454 61.9377 96.8525 63.694 95.4596 64.7034C94.0668 65.7329 92.2499 66.3384 89.6662 66.3384C88.2934 66.3384 85.9316 66.298 83.9734 66.2778H83.9532C83.8524 66.0963 84.1147 65.3897 84.2762 65.3695C84.8011 65.3089 84.9423 65.2887 85.2049 65.1878C85.6287 65.0263 85.7095 64.8042 85.7701 64.0574C85.8306 62.6645 85.8104 60.989 85.8104 59.0915C85.8104 57.739 85.8306 55.0944 85.7902 54.2466C85.7297 53.5402 85.427 53.3585 84.8213 53.2372C84.5185 53.1768 84.1147 53.096 83.5496 53.0355C83.4688 52.8941 83.8321 52.2683 83.933 52.1473Z" fill="#8E714E"/>
<path fill-rule="evenodd" clip-rule="evenodd" d="M59.5074 65.4906C59.0027 65.43 58.6393 65.3493 58.1951 65.1474C58.1346 65.107 58.0336 64.9053 58.0336 64.8244C57.9932 64.1179 57.9932 62.0992 57.9932 60.7467C57.9932 59.6566 57.8117 58.7079 57.3472 58.0417C56.8022 57.2745 56.015 56.8305 55.0056 56.8305C54.1174 56.8305 52.9264 57.4362 51.9372 58.284C51.917 58.3041 51.7556 58.4455 51.7758 58.2234C51.7758 58.0013 51.8162 57.5573 51.8364 57.2545C51.8566 56.9718 51.6951 56.8305 51.6951 56.8305C51.049 57.1535 49.2323 57.5775 48.5661 57.6379C48.0817 57.739 47.9606 58.2032 48.4652 58.3647H48.4855C49.0303 58.5262 49.3937 58.7079 49.6763 58.8896C49.8782 59.0511 49.858 59.2732 49.858 59.4549C49.8782 60.9688 49.8782 63.2902 49.8177 64.5621C49.7975 65.0668 49.6563 65.2483 49.2929 65.3291L49.3331 65.3089C49.0506 65.3695 48.8284 65.43 48.4853 65.4704C48.3642 65.5914 48.3642 66.2376 48.4853 66.3788C48.7074 66.3788 49.8782 66.3182 50.8473 66.3182C52.1796 66.3182 52.8659 66.3788 53.2091 66.3788C53.3504 66.2174 53.3908 65.6116 53.31 65.4704C52.9264 65.4502 52.6438 65.4099 52.3815 65.3291C52.0181 65.2483 51.917 65.0668 51.8968 64.6427C51.8566 63.5728 51.8566 61.312 51.8566 59.7778C51.8566 59.3538 51.9777 59.1519 52.0987 59.0308C52.563 58.6272 53.31 58.3445 53.9761 58.3445C54.622 58.3445 55.0461 58.5464 55.369 58.8089C55.8131 59.1721 55.9543 59.697 56.015 60.0806C56.1158 60.9486 56.0756 62.6645 56.0756 64.1583C56.0756 64.9657 56.015 65.1676 55.7122 65.2685C55.5709 65.3291 55.2075 65.4099 54.7835 65.4502C54.6422 65.5914 54.6827 66.2174 54.7835 66.3586C55.369 66.3586 56.0554 66.298 57.0647 66.298C58.3162 66.298 59.1238 66.3586 59.4467 66.3586C59.5476 66.2376 59.5882 65.6521 59.5074 65.4906ZM65.099 57.7794C64.0291 57.7794 63.3629 58.607 63.3629 59.8989C63.3629 61.211 63.9483 62.725 65.6037 62.725C65.8863 62.725 66.4111 62.6039 66.6533 62.3213C67.0369 61.958 67.2994 61.2312 67.2994 60.4642C67.2994 58.7887 66.4716 57.7794 65.099 57.7794ZM64.9576 66.7018C64.554 66.7018 64.2712 66.8229 64.0897 66.9239C63.2417 67.4688 62.8583 67.9937 62.8583 68.6196C62.8583 69.2049 63.0802 69.6691 63.5649 70.0729C64.1502 70.5776 64.9576 70.8199 65.9871 70.8199C68.0462 70.8199 68.9546 69.7096 68.9546 68.6196C68.9546 67.8524 68.571 67.3477 67.7838 67.0652C67.2185 66.8229 66.189 66.7018 64.9576 66.7018ZM65.099 71.9503C63.8676 71.9503 62.9794 71.6878 62.2124 71.1025C61.4654 70.5372 61.1424 69.6894 61.1424 69.104C61.1424 68.9426 61.1828 68.4983 61.5462 68.0947C61.7681 67.8524 62.2526 67.3882 63.4034 66.6009C63.4436 66.5807 63.4638 66.5605 63.4638 66.5201C63.4638 66.4797 63.4234 66.4393 63.3832 66.4193C62.4343 66.0559 62.1517 65.4704 62.0709 65.1474V65.107C62.0509 64.9859 62.0105 64.8649 62.1921 64.7436C62.3334 64.6427 62.5353 64.5217 62.7572 64.3804C63.1004 64.1785 63.4638 63.9564 63.6859 63.7747C63.7263 63.7343 63.7263 63.694 63.7263 63.6536C63.7263 63.6132 63.6859 63.5728 63.6455 63.5528C62.2326 63.0883 61.526 62.0386 61.526 60.4642C61.526 59.4346 61.9902 58.506 62.8179 57.9207C63.3832 57.4764 64.7961 56.9316 65.7248 56.9316H65.7854C66.7341 56.9516 67.259 57.1535 68.0058 57.416C68.4096 57.5573 68.7932 57.6177 69.318 57.6177C70.1052 57.6177 70.4484 57.3756 70.731 57.093C70.7512 57.1333 70.7916 57.2343 70.8118 57.4967C70.832 57.7592 70.7512 58.1426 70.5493 58.4253C70.3878 58.6472 70.0246 58.8089 69.6612 58.8089H69.5602C69.1968 58.7685 69.0353 58.7281 69.0353 58.7281L68.9546 58.7685C68.9344 58.8089 68.9546 58.8491 68.9748 58.9098L68.9951 58.9502C69.0353 59.1319 69.1161 59.6768 69.1161 59.8182C69.1161 61.4735 68.45 62.2001 67.7434 62.7452C67.0571 63.2498 66.2698 63.5728 65.3816 63.6536C65.3614 63.6536 65.2807 63.6536 65.099 63.6738C64.998 63.6738 64.8567 63.694 64.8365 63.694H64.8163C64.6548 63.7343 64.2512 63.9362 64.2512 64.2794C64.2512 64.5821 64.4329 64.9455 65.3008 65.0061C65.4824 65.0263 65.6641 65.0263 65.866 65.0465C67.0166 65.1272 68.45 65.2282 69.1161 65.4502C70.0446 65.7933 70.6301 66.621 70.6301 67.6103C70.6301 69.104 69.5602 70.497 67.7838 71.3648C66.9158 71.7484 66.0477 71.9503 65.099 71.9503ZM76.6054 57.8802C76.1814 57.8802 75.7978 57.9811 75.5152 58.183C74.728 58.6675 74.3242 59.6365 74.3242 61.0495C74.3242 63.694 75.6565 65.5512 77.5541 65.5512C78.1194 65.5512 78.5634 65.3897 78.947 65.0668C79.5323 64.5821 79.8353 63.6132 79.8353 62.2607C79.8353 59.6365 78.523 57.8802 76.6054 57.8802ZM76.9688 66.5201C73.537 66.5201 72.3056 63.9968 72.3056 61.635C72.3056 59.9797 72.9717 58.7079 74.304 57.7994C75.2529 57.2141 76.3833 56.8911 77.3926 56.8911C80.0168 56.8911 81.8539 58.7685 81.8539 61.4735C81.8539 63.3105 81.1271 64.7638 79.7342 65.6521C79.0681 66.0961 77.9177 66.5201 76.9688 66.5201ZM40.9962 57.8802C40.5722 57.8802 40.1888 57.9811 39.906 58.183C39.1188 58.6675 38.715 59.6365 38.715 61.0495C38.715 63.694 40.0473 65.5512 41.9449 65.5512C42.5102 65.5512 42.9542 65.3897 43.3378 65.0668C43.9231 64.5821 44.2261 63.6132 44.2261 62.2607C44.2261 59.6365 42.934 57.8802 40.9962 57.8802ZM41.3596 66.5201C37.9278 66.5201 36.6964 63.9968 36.6964 61.635C36.6964 59.9797 37.3625 58.7079 38.6948 57.7994C39.6437 57.2141 40.7741 56.8911 41.7834 56.8911C44.4078 56.8911 46.2447 58.7685 46.2447 61.4735C46.2447 63.3105 45.5179 64.7638 44.125 65.6521C43.4791 66.0961 42.3285 66.5201 41.3596 66.5201ZM18.2863 66.3182C18.2458 66.2578 18.2054 66.0761 18.2256 65.854C18.2256 65.6925 18.266 65.5914 18.2863 65.5512C18.7101 65.4906 18.9322 65.43 19.1743 65.3695C19.5781 65.2685 19.7396 65.0465 19.7598 64.5419C19.8204 63.3307 19.8204 61.0293 19.8002 59.4346V59.3942C19.8002 59.2125 19.8002 58.9904 19.5781 58.8289C19.2552 58.6272 18.8716 58.4455 18.3669 58.3041C18.1852 58.2436 18.0641 58.1426 18.0844 58.0215C18.0844 57.9005 18.2054 57.7592 18.4679 57.7188C19.1341 57.6581 20.87 57.2343 21.5564 56.9316C21.5968 56.9718 21.6574 57.093 21.6574 57.2545L21.6372 57.4764C21.617 57.6986 21.5968 57.9611 21.5968 58.2234C21.5968 58.3041 21.6776 58.3647 21.7583 58.3647C21.7987 58.3647 21.8391 58.3445 21.8795 58.3243C23.1714 57.315 24.3422 56.9516 24.9477 56.9516C25.937 56.9516 26.704 57.416 27.2895 58.3849C27.3297 58.4455 27.3702 58.4656 27.4308 58.4656C27.4712 58.4656 27.5316 58.4455 27.5518 58.4051C28.7429 57.4967 29.9339 56.9516 30.7211 56.9516C32.5985 56.9516 33.7088 58.3445 33.7088 60.7063C33.7088 61.3725 33.7088 62.2405 33.6886 63.0279C33.6886 63.7343 33.6684 64.3804 33.6684 64.8446C33.6684 64.9455 33.8097 65.2685 34.0318 65.3291C34.3143 65.4704 34.6979 65.531 35.2026 65.6116H35.2228C35.2632 65.7529 35.1824 66.2778 35.1017 66.3788C34.9805 66.3788 34.7988 66.3788 34.5971 66.3586C34.2135 66.3384 33.6684 66.3182 33.0629 66.3182C31.8112 66.3182 31.1653 66.3384 30.5394 66.3788C30.4992 66.2174 30.479 65.7329 30.5394 65.6116C30.9028 65.5512 31.0845 65.4906 31.3066 65.43C31.7104 65.3089 31.8112 65.1272 31.8315 64.6023C31.8315 64.2189 31.9121 60.9486 31.791 60.1612C31.67 59.3538 31.0643 58.4051 29.732 58.4051C29.2273 58.4051 28.4401 58.607 27.6729 59.1923C27.6327 59.2327 27.5923 59.3336 27.5923 59.3942V59.4144C27.6729 59.8383 27.6729 60.3229 27.6729 61.0697V62.3818C27.6729 63.2902 27.6527 64.1381 27.6729 64.784C27.6729 65.2282 27.9354 65.3291 28.1576 65.4099C28.2786 65.43 28.3593 65.4502 28.4603 65.4704C28.642 65.5108 28.8237 65.5512 29.1062 65.6116C29.1467 65.6925 29.1467 65.9548 29.086 66.1769C29.0658 66.298 29.0254 66.3586 29.0054 66.3788C28.319 66.3586 27.6125 66.3384 26.5829 66.3384C26.2802 66.3384 25.7553 66.3586 25.3111 66.3586C24.9477 66.3586 24.6045 66.3788 24.4028 66.3788C24.3826 66.3384 24.3422 66.1971 24.3422 65.975C24.3422 65.7933 24.3826 65.6521 24.423 65.6116C24.5239 65.5914 24.6045 65.5714 24.7056 65.5714C24.9477 65.531 25.1496 65.4906 25.3515 65.4502C25.6947 65.3493 25.8158 65.1676 25.836 64.7236C25.8966 63.7143 25.957 60.8276 25.8158 60.1008C25.5736 58.93 24.9075 58.3445 23.8375 58.3445C23.2118 58.3445 22.4244 58.6472 21.7785 59.1319C21.6776 59.2125 21.5968 59.4144 21.5968 59.5961V60.7871C21.5968 62.2405 21.5968 64.0574 21.617 64.8446C21.6372 65.0868 21.7178 65.3695 22.1823 65.4704C22.2831 65.4906 22.4446 65.531 22.6465 65.5512L23.0099 65.6116C23.0503 65.7329 23.0301 66.2174 22.9493 66.3788C22.7474 66.3788 22.5052 66.3586 22.2225 66.3586C21.7987 66.3384 21.2536 66.3182 20.6481 66.3182C19.9415 66.3182 19.4369 66.3384 19.033 66.3586C18.7505 66.3182 18.5284 66.3182 18.2863 66.3182Z" fill="#442D22"/>
<path fill-rule="evenodd" clip-rule="evenodd" d="M7.66804 71.1631L6.84041 70.8803C6.84041 70.8803 6.94146 66.6614 5.42748 66.3586C4.41815 65.1878 5.58896 16.6995 9.22244 66.1971C9.22244 66.1971 7.97099 66.8228 7.74888 67.8928C7.50656 68.9425 7.66804 71.1631 7.66804 71.1631Z" fill="white"/>
<path fill-rule="evenodd" clip-rule="evenodd" d="M7.66804 71.1631L6.84041 70.8803C6.84041 70.8803 6.94146 66.6614 5.42748 66.3586C4.41815 65.1878 5.58896 16.6995 9.22244 66.1971C9.22244 66.1971 7.97099 66.8228 7.74888 67.8928C7.50656 68.9425 7.66804 71.1631 7.66804 71.1631Z" fill="#A6A385"/>
<path fill-rule="evenodd" clip-rule="evenodd" d="M8.11218 67.0854C8.11218 67.0854 15.3591 62.3213 13.6635 52.4096C12.0284 45.203 8.17262 42.8412 7.7488 41.9328C7.28455 41.2868 6.84033 40.1564 6.84033 40.1564L7.14328 60.2016C7.14328 60.2218 6.51736 66.3384 8.11218 67.0854Z" fill="white"/>
<path fill-rule="evenodd" clip-rule="evenodd" d="M8.11218 67.0854C8.11218 67.0854 15.3591 62.3213 13.6635 52.4096C12.0284 45.203 8.17262 42.8412 7.7488 41.9328C7.28455 41.2868 6.84033 40.1564 6.84033 40.1564L7.14328 60.2016C7.14328 60.2218 6.51736 66.3384 8.11218 67.0854Z" fill="#499D4A"/>
<path fill-rule="evenodd" clip-rule="evenodd" d="M6.41652 67.3477C6.41652 67.3477 -0.386392 62.7047 0.0174128 54.5293C0.400819 46.3537 5.2053 42.3366 6.13378 41.6098C6.73949 40.9639 6.7597 40.7216 6.80012 40.0756C7.22394 40.9841 7.14329 53.6612 7.20373 55.155C7.38543 60.9082 6.88076 66.2577 6.41652 67.3477Z" fill="white"/>
<path fill-rule="evenodd" clip-rule="evenodd" d="M6.41652 67.3477C6.41652 67.3477 -0.386392 62.7047 0.0174128 54.5293C0.400819 46.3537 5.2053 42.3366 6.13378 41.6098C6.73949 40.9639 6.7597 40.7216 6.80012 40.0756C7.22394 40.9841 7.14329 53.6612 7.20373 55.155C7.38543 60.9082 6.88076 66.2577 6.41652 67.3477Z" fill="#58AA50"/>
</svg>
