<svg width="800" height="555" viewBox="0 0 800 555" fill="none" xmlns="http://www.w3.org/2000/svg">
<path d="M244.883 447.826H223.225C222.459 411.269 220.349 376.9 216.901 344.695H216.708L183.733 447.826H167.244L134.465 344.695H134.277C131.846 375.615 130.314 409.992 129.678 447.826H109.936C111.208 401.819 114.406 358.686 119.516 318.425H146.36L177.602 413.508H177.795L209.229 318.425H234.914C240.539 365.583 243.862 408.72 244.883 447.826ZM338.811 352.354C329.993 400.207 318.358 434.978 303.919 456.682C292.669 473.389 280.344 481.751 266.922 481.751C263.344 481.751 258.928 480.671 253.697 478.529V466.99C256.254 467.358 259.255 467.568 262.703 467.568C268.973 467.568 274.012 465.843 277.854 462.386C282.449 458.176 284.747 453.443 284.747 448.207C284.747 444.616 282.955 437.275 279.381 426.16L255.614 352.35H276.891L293.95 407.552C297.783 420.087 299.382 428.838 298.742 433.823C308.071 408.908 314.587 381.742 318.299 352.346H338.811V352.354Z" fill="#5D87A1"/>
<path d="M627.106 447.826H565.584V318.425H586.28V431.897H627.106V447.826ZM549.48 450.952L525.691 439.213C527.801 437.48 529.818 435.605 531.634 433.433C541.746 421.556 546.789 403.991 546.789 380.725C546.789 337.915 529.989 316.5 496.378 316.5C479.897 316.5 467.04 321.932 457.845 332.801C447.742 344.687 442.699 362.189 442.699 385.329C442.699 408.075 447.169 424.762 456.113 435.346C464.295 444.934 476.628 449.734 493.122 449.734C499.274 449.734 504.92 448.981 510.064 447.462L541.034 465.492L549.48 450.952ZM472.418 421.932C467.178 413.503 464.558 399.969 464.558 381.307C464.558 348.725 474.456 332.416 494.273 332.416C504.631 332.416 512.223 336.316 517.078 344.101C522.31 352.542 524.942 365.956 524.942 384.358C524.942 417.207 515.036 433.634 495.232 433.634C484.869 433.638 477.277 429.75 472.418 421.932ZM433.68 411.959C433.68 422.933 429.654 431.935 421.61 438.987C413.558 446.01 402.76 449.529 389.229 449.529C376.573 449.529 364.303 445.487 352.425 437.443L357.987 426.331C368.207 431.449 377.461 433.994 385.768 433.994C393.565 433.994 399.659 432.266 404.078 428.838C408.494 425.398 411.126 420.572 411.126 414.47C411.126 406.782 405.765 400.211 395.93 394.708C386.861 389.727 368.722 379.315 368.722 379.315C358.891 372.15 353.969 364.457 353.969 351.785C353.969 341.297 357.64 332.83 364.985 326.389C372.338 319.923 381.826 316.7 393.456 316.7C405.468 316.7 416.387 319.919 426.222 326.289L421.233 337.404C412.821 333.83 404.518 332.043 396.328 332.043C389.694 332.043 384.571 333.638 381.01 336.839C377.419 340.029 375.205 344.109 375.205 349.115C375.205 356.765 380.679 363.419 390.782 369.032C399.973 374.021 418.563 384.613 418.563 384.613C428.645 391.766 433.68 399.387 433.68 411.959Z" fill="#F8981D"/>
<path d="M653.088 275.083C640.574 274.765 630.886 276.025 622.754 279.465C620.406 280.402 616.673 280.402 616.346 283.37C617.614 284.625 617.761 286.651 618.862 288.384C620.737 291.51 624.005 295.716 626.989 297.909C630.266 300.42 633.556 302.906 637.004 305.095C643.085 308.857 649.978 311.046 655.905 314.796C659.357 316.977 662.789 319.797 666.246 322.145C667.945 323.397 669.033 325.427 671.239 326.209V325.732C670.134 324.326 669.82 322.292 668.736 320.727L664.04 316.198C659.504 310.105 653.866 304.785 647.785 300.416C642.78 296.967 631.831 292.28 629.802 286.513L629.483 286.195C632.924 285.872 637.004 284.625 640.273 283.667C645.592 282.265 650.443 282.583 655.9 281.181C658.411 280.553 660.902 279.766 663.421 278.992V277.582C660.592 274.765 658.575 271.023 655.599 268.362C647.639 261.485 638.867 254.76 629.802 249.131C624.947 245.996 618.703 243.979 613.534 241.313C611.671 240.371 608.533 239.907 607.436 238.341C604.632 234.901 603.054 230.373 601.02 226.301C596.5 217.709 592.11 208.175 588.209 199.089C585.389 192.995 583.673 186.91 580.232 181.272C564.119 154.697 546.621 138.6 519.727 122.801C513.948 119.512 507.071 118.11 499.726 116.385L487.995 115.766C485.493 114.67 482.986 111.694 480.801 110.288C471.878 104.663 448.906 92.4714 442.344 108.568C438.116 118.742 448.596 128.744 452.195 133.905C454.853 137.487 458.297 141.563 460.156 145.631C461.256 148.289 461.566 151.11 462.667 153.918C465.169 160.799 467.509 168.453 470.798 174.873C472.514 178.146 474.385 181.586 476.578 184.549C477.834 186.282 480.018 187.048 480.496 189.873C478.315 192.987 478.143 197.687 476.892 201.596C471.267 219.261 473.464 241.146 481.437 254.128C483.932 258.037 489.883 266.642 497.843 263.344C504.891 260.531 503.33 251.621 505.355 243.807C505.82 241.92 505.515 240.681 506.452 239.442V239.748C508.632 244.121 510.834 248.336 512.855 252.722C517.706 260.376 526.152 268.353 533.187 273.656C536.933 276.485 539.9 281.323 544.591 283.052V282.583H544.282C543.332 281.181 541.942 280.553 540.695 279.465C537.874 276.648 534.752 273.208 532.563 270.086C526.009 261.326 520.209 251.629 515.061 241.623C512.541 236.768 510.369 231.461 508.339 226.615C507.394 224.744 507.394 221.923 505.824 220.981C503.472 224.417 500.044 227.393 498.329 231.603C495.353 238.337 495.043 246.62 493.938 255.233L493.323 255.534C488.343 254.283 486.61 249.131 484.718 244.757C480.035 233.65 479.248 215.821 483.312 203.006C484.4 199.729 489.109 189.408 487.229 186.286C486.288 183.294 483.157 181.59 481.441 179.234C479.424 176.271 477.214 172.521 475.808 169.232C472.058 160.48 470.171 150.783 466.132 142.036C464.245 137.96 460.968 133.741 458.314 129.987C455.334 125.769 452.057 122.797 449.701 117.796C448.923 116.076 447.83 113.263 449.082 111.393C449.387 110.137 450.023 109.668 451.27 109.354C453.296 107.643 459.084 109.819 461.114 110.761C466.91 113.104 471.757 115.293 476.595 118.574C478.784 120.144 481.132 123.115 483.94 123.898H487.229C492.222 124.986 497.851 124.199 502.551 125.614C510.834 128.276 518.338 132.18 525.068 136.395C545.546 149.381 562.433 167.834 573.833 189.873C575.704 193.464 576.499 196.753 578.207 200.499C581.5 208.166 585.573 215.984 588.841 223.488C592.127 230.833 595.257 238.333 599.949 244.435C602.288 247.716 611.688 249.436 615.903 251.156C619.021 252.558 623.875 253.806 626.688 255.526C632.007 258.803 637.306 262.565 642.307 266.169C644.797 268.044 652.623 271.953 653.088 275.083ZM493.608 139.216C491.449 139.193 489.297 139.458 487.209 140.002V140.316H487.51C488.77 142.815 490.958 144.548 492.52 146.728C493.779 149.235 494.872 151.721 496.106 154.224L496.408 153.914C498.613 152.353 499.71 149.85 499.71 146.096C498.76 144.991 498.613 143.911 497.822 142.815C496.901 141.25 494.872 140.471 493.608 139.216Z" fill="#5D87A1"/>
</svg>
