<svg width="112" height="112" viewBox="0 0 112 112" fill="none" xmlns="http://www.w3.org/2000/svg">
<path d="M91.385 61.502C88.3074 61.5061 85.271 62.2098 82.5055 63.56C81.6396 62.1231 80.9709 60.5762 80.5175 58.961C80.2569 57.6949 80.1967 56.3958 80.339 55.111C80.6381 53.6973 81.0262 52.3039 81.501 50.939C81.4835 50.7605 81.2875 49.917 79.317 49.889C77.3465 49.861 75.649 50.2635 75.467 50.785C75.1248 51.7376 74.8499 52.713 74.6445 53.704C73.0136 57.7273 71.0062 61.5875 68.649 65.233C67.3283 63.068 66.7851 60.5174 67.109 58.002C67.4081 56.5883 67.7963 55.1949 68.271 53.83C68.2535 53.6515 68.0575 52.808 66.087 52.78C64.1165 52.752 62.419 53.1545 62.237 53.676C62.055 54.1975 61.824 55.426 61.4145 56.595C61.005 57.764 56.224 68.446 54.971 71.2005C54.327 72.6005 53.7705 73.7415 53.3785 74.5115C53.3599 74.5615 53.3365 74.6096 53.3085 74.655C52.9585 75.3165 52.773 75.677 52.773 75.677V75.6945C52.5035 76.1775 52.2165 76.6255 52.073 76.6255C51.8227 75.6256 51.8347 74.578 52.108 73.584C52.808 69.8775 54.523 64.1165 54.5055 63.917C54.5055 63.8085 54.8275 62.8075 53.396 62.2895C53.064 62.1315 52.6912 62.0804 52.3289 62.143C51.9666 62.2057 51.6326 62.3792 51.373 62.6395C51.247 62.6395 51.1595 62.944 51.1595 62.944C51.1595 62.944 52.717 56.4655 48.188 56.4655C46.4243 56.8203 44.7494 57.5242 43.2617 58.5358C41.7741 59.5474 40.5038 60.8463 39.5255 62.356C38.3075 63.0175 35.714 64.4315 32.9385 65.954C31.8885 66.5455 30.7895 67.137 29.771 67.704C29.701 67.634 29.6275 67.543 29.5575 67.473C24.045 61.6 13.9125 57.456 14.35 49.5985C14.511 46.7355 15.4945 39.2175 33.8065 30.086C48.8775 22.659 60.872 24.717 62.9475 29.281C65.919 35.798 56.5215 47.8975 40.95 49.651C39.2273 50.0005 37.4481 49.9584 35.7439 49.5276C34.0398 49.0969 32.4542 48.2886 31.1045 47.1625C30.282 46.2665 30.156 46.214 29.8515 46.3925C29.351 46.662 29.673 47.467 29.8515 47.9325C30.4455 49.0076 31.249 49.9526 32.2144 50.7119C33.1799 51.4711 34.2877 52.0292 35.4725 52.353C41.5983 53.6768 47.9851 53.0439 53.732 50.5435C63.182 46.893 70.532 36.743 68.376 28.2415C66.2095 19.614 51.891 16.7685 38.339 21.5915C29.8506 24.4478 22.0074 28.9468 15.2565 34.832C7.79098 41.8145 6.61148 47.88 7.09448 50.4245C8.84448 59.4475 21.273 65.317 26.2465 69.6745C25.9945 69.818 25.7635 69.944 25.5675 70.049C23.079 71.2845 13.594 76.244 11.2175 81.487C8.53298 87.437 11.648 91.6895 13.706 92.2635C16.807 93.0058 20.0624 92.7613 23.0178 91.5641C25.9731 90.3669 28.4809 88.2768 30.191 85.5855C31.6472 83.3533 32.5423 80.8021 32.8001 78.1494C33.0579 75.4966 32.6707 72.8209 31.6715 70.35C31.6546 70.3101 31.6309 70.2734 31.6015 70.2415L33.551 69.097C34.8215 68.3445 36.0745 67.648 37.149 67.074C36.4204 69.1756 35.9926 71.3697 35.8785 73.591C35.6311 76.9957 36.673 80.369 38.7975 83.041C39.1207 83.3193 39.496 83.5306 39.9016 83.6628C40.3071 83.795 40.7348 83.8454 41.16 83.811C43.26 83.811 44.2225 82.061 45.276 79.982C46.564 77.441 47.726 74.487 47.726 74.487C47.726 74.487 46.277 82.4705 50.2145 82.4705C51.646 82.4705 53.095 80.6085 53.7425 79.6705V79.688C53.7425 79.688 53.7775 79.6355 53.851 79.5095L54.082 79.135V79.1C54.656 78.099 55.944 75.824 57.8585 72.0475C60.3295 67.179 62.7095 61.0925 62.7095 61.0925C62.939 62.4301 63.2559 63.7513 63.658 65.0475C64.2345 66.6188 64.9162 68.1494 65.6985 69.629C65.1245 70.434 64.7675 70.882 64.7675 70.882L64.785 70.8995C64.3195 71.5085 63.819 72.17 63.2625 72.814C61.6068 74.6343 60.0706 76.5599 58.6635 78.5785C58.4544 78.9176 58.3826 79.3236 58.4625 79.7139C58.5425 80.1041 58.7684 80.4491 59.094 80.6785C59.8308 81.0619 60.6706 81.2005 61.4915 81.074C62.7285 81.0042 63.9449 80.7261 65.0895 80.2515C66.1955 79.8623 67.239 79.314 68.187 78.624C69.1643 77.947 69.951 77.0298 70.4714 75.9608C70.9918 74.8918 71.2284 73.7069 71.1585 72.52C71.0484 71.025 70.6665 69.5625 70.0315 68.2045C70.21 67.9525 70.3815 67.704 70.5495 67.452C72.5394 64.4819 74.3328 61.3848 75.9185 58.1805C76.148 59.5181 76.4649 60.8393 76.867 62.1355C77.3424 63.4934 77.9277 64.8102 78.617 66.073C76.3278 67.8343 74.5247 70.1493 73.3775 72.8C72.2505 76.0585 73.1255 77.525 74.7775 77.8645C75.6814 77.9268 76.5853 77.7417 77.392 77.329C78.578 76.9392 79.6954 76.3652 80.703 75.628C81.7654 75.001 82.6553 74.1197 83.2925 73.0633C83.9298 72.007 84.2943 70.8088 84.3535 69.5765C84.274 68.3465 83.9963 67.1374 83.531 65.996C86.5518 64.8159 89.8272 64.4396 93.037 64.904C101.556 65.905 103.239 71.2215 102.917 73.4615C102.766 74.2556 102.447 75.0082 101.981 75.6686C101.515 76.3291 100.913 76.8821 100.215 77.2905C99.624 77.665 99.428 77.791 99.4805 78.0605C99.5505 78.456 99.8305 78.435 100.338 78.365C101.622 77.966 102.755 77.1871 103.587 76.1311C104.419 75.0751 104.912 73.7917 105 72.45C105.269 67.2 100.257 61.4425 91.3955 61.495L91.385 61.502ZM25.655 83.65C22.827 86.73 18.8895 87.892 17.1885 86.9085C15.3615 85.8585 16.079 81.3085 19.551 78.0465C21.6106 76.1925 23.8366 74.5324 26.201 73.087C26.614 72.835 27.223 72.478 27.951 72.037L28.147 71.9285L28.5775 71.659C29.1978 73.7373 29.254 75.9432 28.7404 78.0504C28.2269 80.1576 27.162 82.0902 25.655 83.65ZM46.2385 69.65C45.255 72.0475 43.197 78.19 41.944 77.847C40.8695 77.56 40.194 72.905 41.7305 68.306C42.5063 66.0921 43.6363 64.0188 45.0765 62.167C46.6165 60.4485 48.3175 59.8745 48.727 60.5745C48.3534 63.7066 47.5147 66.7654 46.2385 69.65ZM63.224 77.777C62.811 77.9905 62.419 78.127 62.2405 78.029C62.1145 77.959 62.419 77.679 62.419 77.679C62.419 77.679 64.5505 75.3865 65.3905 74.3505C65.8735 73.7415 66.4405 73.0275 67.0565 72.219V72.45C67.0565 75.187 64.407 77.0315 63.2275 77.784L63.224 77.777ZM76.328 74.788C76.0235 74.5745 76.076 73.857 77.098 71.6205C77.8086 70.1842 78.8013 68.9057 80.017 67.8615C80.2033 68.3913 80.3003 68.9484 80.304 69.51C80.3178 70.7054 79.9356 71.8718 79.217 72.8271C78.4984 73.7825 77.4838 74.4732 76.3315 74.7915L76.328 74.788Z" fill="#CD6799"/>
</svg>
