<svg width="inherit" height="inherit" viewBox="0 0 30 30" fill="none" xmlns="http://www.w3.org/2000/svg">
    <path
        d="M30 28.4633L22.9007 21.3748C25.065 18.8167 26.1568 15.5212 25.9479 12.1769C25.739 8.83267 24.2455 5.6986 21.7797 3.42981C19.3139 1.16102 16.0666 -0.066864 12.7165 0.00281098C9.36649 0.0724859 6.17303 1.43433 3.80368 3.80368C1.43433 6.17303 0.0724859 9.36649 0.00281098 12.7165C-0.066864 16.0666 1.16102 19.3139 3.42981 21.7797C5.6986 24.2455 8.83267 25.739 12.1769 25.9479C15.5212 26.1568 18.8167 25.065 21.3748 22.9007L28.4633 30L30 28.4633ZM12.9984 23.8206C10.858 23.8206 8.76565 23.1858 6.98596 21.9967C5.20626 20.8075 3.81916 19.1174 3.00006 17.1399C2.18096 15.1624 1.96664 12.9864 2.38422 10.8871C2.80179 8.78783 3.8325 6.85951 5.34601 5.34601C6.85951 3.8325 8.78783 2.80179 10.8871 2.38422C12.9864 1.96664 15.1624 2.18096 17.1399 3.00006C19.1174 3.81916 20.8075 5.20626 21.9967 6.98596C23.1858 8.76565 23.8206 10.858 23.8206 12.9984C23.8206 14.4196 23.5406 15.8269 22.9968 17.1399C22.4529 18.4529 21.6558 19.6459 20.6508 20.6508C19.6459 21.6558 18.4529 22.4529 17.1399 22.9968C15.8269 23.5406 14.4196 23.8206 12.9984 23.8206Z"
        fill="black" />
</svg>