<svg width="190" height="195" viewBox="0 0 190 195" fill="none" xmlns="http://www.w3.org/2000/svg">
<path d="M189.5 97.5C189.5 151.084 147.179 194.5 95 194.5C42.8213 194.5 0.5 151.084 0.5 97.5C0.5 43.9161 42.8213 0.5 95 0.5C147.179 0.5 189.5 43.9161 189.5 97.5Z" fill="white" stroke="black"/>
<path fill-rule="evenodd" clip-rule="evenodd" d="M95 0C147.468 0 190 43.6043 190 97.4028C190 140.428 162.811 176.928 125.086 189.819C120.27 190.779 118.56 187.737 118.56 185.143C118.56 181.932 118.674 171.445 118.674 158.411C118.674 149.329 115.634 143.401 112.224 140.38C133.38 137.967 155.61 129.73 155.61 92.3188C155.61 81.6788 151.924 72.9963 145.825 66.1753C146.813 63.7148 150.071 53.8076 144.894 40.3936C144.894 40.3936 136.933 37.7836 118.797 50.3806C111.207 48.2241 103.075 47.1391 95 47.1011C86.925 47.1391 78.8025 48.2241 71.2215 50.3806C53.067 37.7836 45.087 40.3936 45.087 40.3936C39.9285 53.8076 43.187 63.7148 44.1655 66.1753C38.095 72.9963 34.3805 81.6788 34.3805 92.3188C34.3805 129.635 56.563 137.998 77.6625 140.459C74.9455 142.891 72.485 147.181 71.63 153.48C66.215 155.969 52.459 160.276 43.985 145.39C43.985 145.39 38.9595 136.031 29.4215 135.347C29.4215 135.347 20.159 135.224 28.7755 141.266C28.7755 141.266 34.998 144.259 39.3205 155.516C39.3205 155.516 44.897 172.901 71.326 167.011C71.3735 175.152 71.459 182.825 71.459 185.143C71.459 187.718 69.711 190.731 64.9705 189.828C27.2175 176.956 0 140.438 0 97.4028C0 43.6043 42.541 0 95 0Z" fill="black"/>
</svg>
