<svg width="112" height="112" viewBox="0 0 112 112" fill="none" xmlns="http://www.w3.org/2000/svg">
<g clip-path="url(#clip0_339_29)">
<rect width="112" height="112" fill="white"/>
<path d="M111.938 0.0619507H0.190613V111.938H111.938V0.0619507Z" fill="#FFCA28"/>
<path d="M68.0373 93.1105L76.2647 87.6598C76.9096 89.6879 80.9928 94.5046 86.1504 94.5046C91.3079 94.5046 93.7025 91.6845 93.7025 89.8146C93.7025 84.7194 88.436 82.923 85.9065 82.0604C85.4938 81.9197 85.1546 81.8039 84.9223 81.7028C84.803 81.6508 84.623 81.5817 84.3919 81.4934C81.5787 80.4174 71.1993 76.4474 71.1993 64.9393C71.1993 52.2642 83.4177 50.8066 86.1811 50.8066C87.9886 50.8066 96.6802 51.0283 101.009 59.1721L93.0268 64.7495C91.2772 61.2003 88.3697 60.028 86.5802 60.028C82.1594 60.028 81.2383 63.2724 81.2383 64.7495C81.2383 68.8937 86.0414 70.7513 90.0966 72.3196C91.1578 72.7299 92.1676 73.1203 93.0268 73.527C97.4476 75.6183 103.956 79.0409 103.956 89.8146C103.956 95.211 99.4351 103.948 88.0537 103.948C72.765 103.948 68.7126 94.7583 68.0373 93.1105Z" fill="#3E3E3E"/>
<path d="M28.1275 94.1925L36.7029 88.7449C37.3746 90.7719 39.9859 94.5093 43.7741 94.5093C47.5628 94.5093 49.502 90.6136 49.502 88.7449V52.0052H60.0482V88.7449C60.219 93.8125 57.4117 103.948 45.0221 103.948C33.6311 103.948 28.8954 97.17 28.1275 94.1925Z" fill="#3E3E3E"/>
</g>
<defs>
<clipPath id="clip0_339_29">
<rect width="112" height="112" fill="white"/>
</clipPath>
</defs>
</svg>
