<svg width="112" height="112" viewBox="0 0 112 112" fill="none" xmlns="http://www.w3.org/2000/svg">
<path d="M109.882 67.0666C109.231 65.0947 107.525 63.7209 105.319 63.3911C104.279 63.2358 103.087 63.3021 101.678 63.5928C99.2207 64.0997 97.3977 64.2925 96.0674 64.3302C101.089 55.8516 105.172 46.1829 107.523 37.0816C111.324 22.3653 109.293 15.6611 106.919 12.6284C100.638 4.60211 91.4728 0.289968 80.4158 0.157785C74.518 0.0857987 69.3397 1.25037 66.6389 2.08761C64.1239 1.64416 61.4195 1.39635 58.582 1.35044C53.2638 1.26567 48.5644 2.42497 44.549 4.80778C42.3254 4.05632 38.758 2.99659 34.6377 2.32012C24.9469 0.729158 17.1368 1.96897 11.4241 6.0047C4.50643 10.8912 1.29941 19.3811 1.89261 31.2387C2.08073 35.0035 4.18688 46.4578 7.50275 57.3212C9.4085 63.5649 11.4407 68.7502 13.5428 72.7337C16.5238 78.3825 19.7135 81.7091 23.2945 82.9036C25.3019 83.5725 28.9486 84.0405 32.7844 80.8466C33.2705 81.435 33.9189 82.0202 34.7799 82.5634C35.873 83.253 37.2099 83.8163 38.5448 84.1502C43.3563 85.3531 47.8631 85.0521 51.7079 83.3663C51.7315 84.0501 51.7498 84.7035 51.7654 85.2676C51.7909 86.1828 51.816 87.08 51.8496 87.919C52.0774 93.5931 52.4634 98.0048 53.6072 101.091C53.6699 101.262 53.7544 101.52 53.8437 101.794C54.414 103.541 55.3684 106.466 57.7956 108.757C60.3096 111.129 63.3501 111.857 66.1347 111.857C67.5313 111.857 68.8639 111.674 70.0325 111.423C74.1989 110.531 78.9304 109.17 82.3531 104.297C85.589 99.6893 87.1622 92.7501 87.4468 81.8157C87.4837 81.5067 87.5178 81.2115 87.5507 80.9301C87.5728 80.7402 87.5953 80.5461 87.6182 80.3525L88.3807 80.4194L88.577 80.4327C92.8205 80.6261 98.009 79.7261 101.195 78.246C103.713 77.0775 111.782 72.818 109.882 67.0666Z" fill="black"/>
<path d="M102.627 68.1853C90.0097 70.7878 89.1424 66.5161 89.1424 66.5161C102.464 46.7493 108.033 21.6583 103.227 15.5174C90.1163 -1.23379 67.4214 6.68844 67.0427 6.89411L66.9208 6.91593C64.4281 6.39849 61.6384 6.09023 58.5032 6.03906C52.7942 5.9455 48.4638 7.53572 45.1777 10.0276C45.1777 10.0276 4.69225 -6.65079 6.57517 31.0039C6.97574 39.0147 18.0568 91.6169 31.2739 75.7285C36.1047 69.9187 40.7723 65.0064 40.7723 65.0064C43.0906 66.5464 45.866 67.332 48.7755 67.0498L49.0015 66.8579C48.9313 67.5793 48.9634 68.2849 49.0921 69.1201C45.6872 72.9243 46.6877 73.5923 39.8811 74.9934C32.9938 76.4128 37.0398 78.9398 39.6815 79.6002C42.884 80.4011 50.293 81.5356 55.2992 74.5276L55.0995 75.3272C56.4336 76.3957 57.3705 82.2778 57.2134 87.6097C57.0564 92.942 56.9516 96.6027 58.0028 99.4621C59.054 102.321 60.1017 108.755 69.0495 106.838C76.5263 105.236 80.4007 101.083 80.9397 94.1574C81.3222 89.2336 82.1878 89.9614 82.2425 85.5593L82.9368 83.4752C83.7374 76.8005 83.0639 74.6472 87.6703 75.6488L88.7897 75.7471C92.1801 75.9013 96.6174 75.2018 99.2217 73.9913C104.83 71.3888 108.155 67.0436 102.626 68.1853H102.627Z" fill="#336791"/>
<path d="M47.5475 34.5864C46.4108 34.4282 45.3809 34.5746 44.8599 34.9689C44.5667 35.1909 44.4762 35.448 44.4518 35.6251C44.3864 36.0939 44.715 36.6121 44.9166 36.8794C45.4875 37.6362 46.3217 38.1564 47.1474 38.271C47.2671 38.2876 47.386 38.2956 47.5043 38.2956C48.8814 38.2956 50.133 37.2236 50.2433 36.4322C50.3813 35.4412 48.9426 34.7806 47.5475 34.5864Z" fill="white"/>
<path d="M85.2136 34.6177C85.1052 33.8409 83.7224 33.6195 82.4106 33.8018C81.1008 33.9844 79.8304 34.5756 79.9365 35.3542C80.0218 35.9596 81.1146 36.9933 82.4089 36.993C82.518 36.993 82.6283 36.9858 82.7395 36.9702C83.6033 36.8506 84.2371 36.302 84.5381 35.9857C84.9968 35.5041 85.262 34.9669 85.2136 34.6177Z" fill="white"/>
<path d="M106.825 67.8896C106.344 66.4348 104.796 65.9666 102.223 66.498C94.5845 68.0745 91.849 66.9824 90.9506 66.321C96.8881 57.2758 101.772 46.3427 104.407 36.1415C105.656 31.3094 106.345 26.822 106.401 23.1645C106.463 19.1493 105.78 16.1994 104.37 14.3972C98.6837 7.13192 90.3391 3.2349 80.2377 3.12779C73.2934 3.04979 67.4262 4.82712 66.2887 5.32675C63.8934 4.73105 61.2821 4.36535 58.4395 4.3187C53.2262 4.23442 48.7201 5.48251 44.9892 8.02635C43.3686 7.42338 39.1804 5.98566 34.0588 5.16071C25.2038 3.73478 18.1675 4.81508 13.146 8.37249C7.15437 12.6174 4.3883 20.2053 4.92431 30.9249C5.10465 34.5318 7.15938 45.6264 10.4025 56.2517C14.6713 70.2363 19.3112 78.1533 24.1937 79.7816C24.7651 79.9722 25.4243 80.1057 26.1506 80.1057C27.9317 80.1057 30.1151 79.3028 32.3871 76.5716C36.1607 72.0317 39.684 68.2275 40.9828 66.8452C42.9021 67.8756 45.0102 68.4507 47.167 68.5084C47.1708 68.5648 47.1766 68.6213 47.1816 68.6774C46.7489 69.1906 46.394 69.6403 46.0915 70.0244C44.5974 71.9211 44.2864 72.3159 39.4766 73.3064C38.1086 73.5885 34.4744 74.3375 34.4215 76.8846C34.3636 79.6675 38.7166 80.8363 39.2127 80.9602C40.9411 81.3929 42.6061 81.6063 44.194 81.6063C48.0562 81.6061 51.4546 80.3369 54.1708 77.8811C54.087 87.8024 54.5008 97.5787 55.692 100.557C56.6674 102.996 59.051 108.955 66.5799 108.955C67.6843 108.955 68.9005 108.826 70.2382 108.54C78.0954 106.855 81.5074 103.382 82.8275 95.7261C83.5338 91.6345 84.746 81.8634 85.3159 76.6225C86.5191 76.9977 88.0681 77.1695 89.7426 77.1693C93.2351 77.1693 97.2648 76.4274 99.7921 75.2543C102.631 73.9359 107.754 70.7003 106.825 67.8896ZM88.1135 32.4735C88.0875 34.0208 87.8745 35.4254 87.6488 36.8917C87.406 38.4687 87.1546 40.099 87.0914 42.0782C87.029 44.0043 87.2695 46.0069 87.5023 47.9432C87.9723 51.8545 88.4547 55.8815 86.5873 59.855C86.2971 59.3396 86.0169 58.7772 85.7601 58.1544C85.5281 57.5918 85.0242 56.6881 84.3266 55.4373C81.6117 50.5688 75.2544 39.168 78.5088 34.5157C79.478 33.1307 81.938 31.7072 88.1135 32.4735ZM80.6283 6.26107C89.6789 6.46097 96.8381 9.84682 101.907 16.3241C105.795 21.2923 101.514 43.899 89.1206 63.4016C88.9982 63.2461 88.8735 63.0891 88.7446 62.9281C88.6932 62.8636 88.6408 62.7982 88.5878 62.732C91.7903 57.4429 91.164 52.21 90.6067 47.5702C90.3777 45.6663 90.1615 43.8679 90.2164 42.1788C90.2734 40.3879 90.5101 38.8527 90.7389 37.3678C91.0206 35.5378 91.3068 33.6446 91.2277 31.4125C91.2867 31.1785 91.3105 30.9019 91.2797 30.5735C91.078 28.433 88.6345 22.0278 83.6537 16.2295C80.9295 13.0586 76.9562 9.50972 71.5314 7.11612C73.8648 6.63254 77.0558 6.18156 80.6283 6.26107ZM29.983 74.5725C27.48 77.5819 25.7513 77.0052 25.183 76.8159C21.4791 75.5803 17.1817 67.7524 13.3928 55.339C10.1143 44.598 8.19829 33.7973 8.04679 30.7687C7.56797 21.1903 9.88983 14.5146 14.9482 10.9274C23.1802 5.08948 36.7145 8.58368 42.1529 10.356C42.0746 10.433 41.9933 10.5052 41.9158 10.5835C32.9918 19.5963 33.2035 34.9948 33.2253 35.9359C33.2246 36.299 33.2549 36.8132 33.2968 37.5205C33.4503 40.1103 33.736 44.9306 32.9728 50.3895C32.2632 55.4621 33.8268 60.4271 37.2621 64.0114C37.6177 64.3824 37.989 64.7308 38.3725 65.0586C36.8432 66.6962 33.5201 70.3173 29.983 74.5725ZM39.5195 61.8481C36.7506 58.9593 35.4933 54.9409 36.0692 50.8224C36.8753 45.0558 36.5776 40.0335 36.4178 37.3354C36.3955 36.958 36.3757 36.6271 36.3639 36.366C37.6677 35.2102 43.7092 31.9729 48.0176 32.9601C49.984 33.4106 51.1817 34.7492 51.6798 37.0523C54.2578 48.9746 52.0212 53.9439 50.2241 57.937C49.8536 58.7597 49.5037 59.5372 49.2047 60.3419L48.9732 60.9637C48.3868 62.5361 47.8413 63.9979 47.5031 65.3862C44.56 65.3771 41.6966 64.12 39.5195 61.8481ZM39.9712 77.927C39.1119 77.7123 38.3389 77.3393 37.8854 77.0301C38.2641 76.8517 38.9383 76.6094 40.1074 76.3687C45.7657 75.2036 46.6393 74.3816 48.5476 71.9587C48.9853 71.4034 49.4811 70.7736 50.1679 70.0065L50.1686 70.0055C51.1917 68.8603 51.6595 69.0544 52.5081 69.4063C53.1958 69.691 53.8655 70.5528 54.1371 71.5015C54.2656 71.9494 54.41 72.8 53.9377 73.4614C49.9514 79.0427 44.1429 78.9709 39.9712 77.927ZM69.5828 105.483C62.6608 106.966 60.2101 103.434 58.595 99.3964C57.5526 96.7896 57.0404 85.0353 57.4039 72.055C57.4086 71.8822 57.384 71.7154 57.3364 71.5586C57.295 71.2559 57.2313 70.9496 57.143 70.6414C56.6022 68.7527 55.2852 67.1728 53.705 66.5179C53.0772 66.2578 51.9246 65.7804 50.5399 66.1346C50.8353 64.9179 51.3475 63.5441 51.9026 62.0562L52.1356 61.4302C52.3979 60.7246 52.7268 59.9937 53.0749 59.2202C54.9556 55.042 57.5313 49.3195 54.7359 36.3913C53.6887 31.5492 50.1922 29.1847 44.8916 29.7338C41.7137 30.0626 38.8066 31.3448 37.3566 32.08C37.0449 32.238 36.7597 32.3905 36.4933 32.5392C36.8979 27.6602 38.4271 18.5426 44.1469 12.7739C47.7479 9.14201 52.5442 7.34838 58.3878 7.44495C69.9018 7.63357 77.2853 13.5424 81.4522 18.4663C85.0427 22.7095 86.9871 26.9835 87.7631 29.2886C81.9278 28.6954 77.959 29.8474 75.9469 32.7236C71.5701 38.9801 78.3415 51.1239 81.5959 56.96C82.1926 58.0298 82.7078 58.9541 82.8698 59.3469C83.9296 61.9153 85.3016 63.6299 86.3034 64.8818C86.6104 65.2653 86.9083 65.6372 87.1348 65.962C85.3675 66.4717 82.1929 67.6488 82.4821 73.5334C82.2488 76.4863 80.5894 90.3106 79.7466 95.1949C78.634 101.648 76.2594 104.051 69.5828 105.483ZM98.4755 72.4185C96.6683 73.2575 93.6439 73.8868 90.7707 74.0217C87.5973 74.1704 85.9821 73.6663 85.6021 73.3563C85.4235 69.6893 86.7887 69.306 88.2332 68.9004C88.4602 68.8365 88.6817 68.7745 88.8954 68.6998C89.0283 68.8079 89.1738 68.9152 89.333 69.0203C91.8836 70.7038 96.4331 70.8854 102.855 69.5598C102.879 69.5548 102.903 69.5503 102.926 69.5455C102.06 70.3554 100.577 71.4425 98.4755 72.4185Z" fill="white"/>
</svg>
