<svg width="112" height="112" viewBox="0 0 112 112" fill="none" xmlns="http://www.w3.org/2000/svg">
<path d="M65.3762 55.9157C65.3762 50.8953 61.1787 46.8248 56.0001 46.8248C50.8222 46.8248 46.6239 50.8953 46.6239 55.9157C46.6239 60.9368 50.8222 65.0069 56.0001 65.0069C61.1787 65.0069 65.3762 60.9368 65.3762 55.9157Z" fill="#53C1DE"/>
<path fill-rule="evenodd" clip-rule="evenodd" d="M86.4514 39.0379C88.4313 31.2367 90.9202 16.7702 82.1464 11.8656C73.4135 6.98232 62.0494 16.3395 56.0487 21.9561C50.0654 16.3955 38.382 7.07829 29.6157 11.9985C20.8863 16.8981 23.5782 31.1248 25.6021 38.9749C17.4591 41.2174 3.5 46.0474 3.5 55.9156C3.5 65.7559 17.4446 71.0108 25.5394 73.2511C23.508 81.1447 20.9509 95.1681 29.6914 100.057C38.4905 104.976 50.1375 95.8807 56.1939 90.2027C62.2332 95.8524 73.4881 105.007 82.2227 100.105C90.9846 95.187 88.7026 80.9144 86.6786 73.0187C94.5256 70.7735 108.5 65.633 108.5 55.9156C108.5 46.1422 94.466 41.273 86.4514 39.0379ZM85.4567 68.8345C84.1278 64.7556 82.334 60.418 80.1399 55.9373C82.2343 51.5623 83.9584 47.2808 85.2502 43.2281C91.1257 44.8798 104.015 48.6545 104.015 55.9156C104.015 63.245 91.6461 67.0554 85.4567 68.8345ZM79.975 96.341C73.458 99.9985 63.7773 91.2436 59.3173 87.0831C62.2762 83.9454 65.233 80.2977 68.1187 76.2471C73.1951 75.8107 77.9905 75.0967 82.3396 74.1219C83.7641 79.7069 86.5207 92.667 79.975 96.341ZM31.9327 96.2888C25.415 92.645 28.394 80.1311 29.8885 74.3165C34.1892 75.2391 38.9501 75.9027 44.0384 76.3028C46.9431 80.2662 49.9856 83.9093 53.0516 87.0999C49.2636 90.6528 38.4808 99.9495 31.9327 96.2888ZM7.98522 55.9156C7.98522 48.559 20.7972 44.8115 26.8066 43.1641C28.1208 47.3077 29.8443 51.6404 31.9243 56.0217C29.8174 60.4681 28.0692 64.8693 26.743 69.062C21.0129 67.4716 7.98522 63.2768 7.98522 55.9156ZM31.8629 15.7624C38.4072 12.0896 48.5615 21.0344 52.9057 25.0605C49.8554 28.2364 46.8408 31.8521 43.961 35.7927C39.0229 36.2365 34.2956 36.9491 29.9498 37.9039C28.3194 31.5725 25.3257 19.4313 31.8629 15.7624ZM71.3275 40.5198C74.6777 40.9297 77.8876 41.475 80.9015 42.1421C79.9967 44.954 78.869 47.8943 77.5407 50.9085C75.6154 47.3665 73.5486 43.8956 71.3275 40.5198ZM56.05 28.1683C58.1189 30.3414 60.1909 32.768 62.2293 35.4007C58.0948 35.211 53.9536 35.2103 49.819 35.3979C51.8592 32.7897 53.949 30.3666 56.05 28.1683ZM34.4977 50.9054C33.1915 47.9017 32.0739 44.9484 31.1613 42.0962C34.1571 41.4463 37.352 40.915 40.6805 40.5118C38.4531 43.8802 36.3898 47.3497 34.4977 50.9054ZM40.7761 71.6299C37.3377 71.2579 34.0944 70.7535 31.0995 70.1214C32.0265 67.2192 33.1687 64.2022 34.5029 61.1338C36.421 64.7265 38.5158 68.2297 40.7761 71.6299ZM56.1743 83.9702C54.0484 81.746 51.9277 79.2858 49.8568 76.6398C54.0148 76.798 58.1809 76.7984 62.3385 76.6185C60.2938 79.3128 58.2292 81.7764 56.1743 83.9702ZM77.5835 60.9777C78.987 64.0794 80.17 67.0799 81.1097 69.9331C78.0651 70.6069 74.7782 71.1494 71.3149 71.5522C73.5525 68.1124 75.6522 64.5876 77.5835 60.9777ZM65.6155 72.0793C59.2553 72.52 52.8556 72.5151 46.4933 72.1154C42.8782 66.9952 39.6599 61.6105 36.8819 56.0203C39.6466 50.4416 42.8414 45.0674 46.4394 39.9553C52.8063 39.4887 59.2123 39.4873 65.5792 39.9581C69.1464 45.0698 72.3363 50.4301 75.165 55.9583C72.3699 61.5342 69.1582 66.9193 65.6155 72.0793ZM79.906 15.6331C86.4521 19.2939 83.5383 32.2954 82.1082 37.9491C77.7521 36.9743 73.0215 36.2491 68.069 35.7983C65.1836 31.8151 62.1943 28.1931 59.1934 25.0582C63.5932 20.9454 73.4233 12.0081 79.906 15.6331Z" fill="#53C1DE"/>
</svg>
