<svg width="112" height="112" viewBox="0 0 112 112" fill="none" xmlns="http://www.w3.org/2000/svg">
<path d="M76.2538 75.446C80.1287 75.0515 83.0683 71.7675 82.9346 67.8261C82.8013 63.8855 79.4605 60.7327 75.452 60.7327H75.1849C71.0423 60.8639 67.836 64.2796 67.9697 68.3518C68.1034 70.3223 68.9049 72.03 70.1075 73.2123C65.5645 82.0141 58.6163 88.4509 48.1943 93.8371C41.1124 97.5152 33.7638 98.8291 26.415 97.9097C20.4021 97.1215 15.7255 94.4944 12.7855 90.1586C8.51004 83.7217 8.10932 76.7592 11.7171 69.797C14.2559 64.8049 18.264 61.1264 20.8028 59.2872C20.2684 57.5795 19.4665 54.6896 19.0658 52.5878C-0.308719 66.3813 1.69572 85.0356 7.57491 93.8371C11.9841 100.406 20.9365 104.478 30.8242 104.478C33.4964 104.478 36.1686 104.215 38.8412 103.559C55.9443 100.274 68.9052 90.2902 76.2538 75.446ZM99.7707 59.1563C89.6158 47.4645 74.6505 41.0277 57.5474 41.0277H55.4099C54.2073 38.6631 51.6684 37.0863 48.8624 37.0863H48.5951C44.4532 37.2179 41.2468 40.6332 41.3801 44.7058C41.5138 48.6468 44.8539 51.7996 48.8624 51.7996H49.1295C52.0691 51.6684 54.608 49.8291 55.6769 47.3329H58.0818C68.2371 47.3329 77.8572 50.2229 86.5428 55.8719C93.2232 60.207 98.0336 65.856 100.706 72.6869C102.977 78.2043 102.844 83.5905 100.438 88.1884C96.6973 95.1506 90.4176 98.9604 82.1331 98.9604C76.7883 98.9604 71.7112 97.384 69.0386 96.2017C67.5689 97.5152 64.8963 99.617 63.0256 100.931C68.7715 103.558 74.6505 105.003 80.2624 105.003C93.0895 105.003 102.577 98.0406 106.184 91.0784C110.059 83.4589 109.792 70.3223 99.7707 59.1563ZM31.893 77.6786C32.0268 81.6196 35.3671 84.7721 39.3757 84.7721H39.6431C43.785 84.6412 46.9917 81.2255 46.858 77.1533C46.7246 73.2119 43.3839 70.0595 39.3757 70.0595H39.1086C38.8412 70.0595 38.4401 70.0595 38.1734 70.1904C32.6949 61.2577 30.4235 51.5368 31.2253 41.0273C31.7593 33.1452 34.4319 26.314 39.1086 20.665C42.9831 15.8044 50.4658 13.4398 55.5436 13.3088C69.7067 13.0459 75.719 30.3863 76.1201 37.3488C77.8572 37.7429 80.7968 38.6627 82.8013 39.3197C81.1976 18.0384 67.836 7.00342 55.0091 7.00342C42.9831 7.00342 31.893 15.5423 27.4835 28.1535C21.3373 44.9683 25.3457 61.1264 32.8282 73.8692C32.1605 74.7887 31.7593 76.2335 31.893 77.6786Z" fill="#764ABC"/>
</svg>
