<svg width="112" height="112" viewBox="0 0 112 112" fill="none" xmlns="http://www.w3.org/2000/svg">
<path d="M86.142 38.2515V73.556L56.1435 91.3045L55.874 91.5495V104.744L56.1435 105L98.392 80.598V31.402L98 31.3075L86.1 37.9575L86.1595 38.2445" fill="#2F406A"/>
<path d="M26.0505 73.85L56.1505 91.308V105L13.608 80.5V31.5L14.0455 31.4335L25.921 38.339L26.0505 38.7345V73.85Z" fill="#2379BD"/>
<path d="M26.0505 38.7345L13.608 31.5L56.049 7L98.399 31.402L86.149 38.2515L56.049 21.0805L26.0505 38.7345Z" fill="#03AFEF"/>
<path d="M55.629 69.8075L55.3035 69.4575V56.217L55.629 56.049L55.7095 55.7235L67.074 49.0945L67.424 49.1715V62.8215L55.6325 69.797" fill="#2F406A"/>
<path d="M43.6415 63.2555V49.0735H43.9705L55.5205 55.8005L55.6185 56.0665V69.825L43.631 63.273" fill="#2379BD"/>
<path d="M55.433 42.0945L43.6415 49.07L55.629 56.0455L67.4205 49.168L55.433 42.0945Z" fill="#03AFEF"/>
<path d="M40.95 78.4525L40.6245 78.1025V64.8655L40.95 64.6975L41.0305 64.372L52.3985 57.75L52.7485 57.827V71.477L40.95 78.4525Z" fill="#2F406A"/>
<path d="M28.9659 71.904V57.7185H29.2949L40.8449 64.4455L40.9429 64.7115V78.47L28.9659 71.904Z" fill="#2379BD"/>
<path d="M40.7574 50.75L28.9659 57.7185L40.9499 64.6975L52.7449 57.82L40.7574 50.75Z" fill="#03AFEF"/>
<path d="M71.351 78.7815L71.0255 78.4315V65.191L71.351 65.023L71.4315 64.6975L82.796 58.0685L83.146 58.1455V71.7955L71.3545 78.771" fill="#2F406A"/>
<path d="M59.3635 72.2295V58.0475H59.6925L71.2425 64.7745L71.3405 65.0405V78.799L59.353 72.247" fill="#2379BD"/>
<path d="M71.155 51.072L59.3635 58.0475L71.351 65.023L83.1425 58.1455L71.155 51.072Z" fill="#03AFEF"/>
<path d="M56.6755 87.43L56.35 87.08V73.85L56.6755 73.682L56.756 73.3565L68.1205 66.7275L68.4705 66.8045V80.4545L56.6755 87.43Z" fill="#2F406A"/>
<path d="M44.688 80.878V66.696H45.017L56.567 73.423L56.665 73.689V87.43L44.6775 80.878" fill="#2379BD"/>
<path d="M56.4795 59.717L44.688 66.6925L56.6755 73.668L68.467 66.7905L56.4795 59.717Z" fill="#03AFEF"/>
<path d="M55.629 51.0055L55.3035 50.6555V37.415L55.629 37.247L55.7095 36.9215L67.074 30.2925L67.424 30.3695V44.0195L55.6325 50.995" fill="#2F406A"/>
<path d="M43.6415 44.45V30.2715H43.9705L55.5205 36.9985L55.6185 37.2645V51.023L43.6415 44.45Z" fill="#2379BD"/>
<path d="M55.433 23.296L43.6415 30.2715L55.629 37.247L67.4205 30.3695L55.433 23.296Z" fill="#03AFEF"/>
<path d="M40.95 59.654L40.6245 59.304V46.0635L40.95 45.8955L41.0305 45.57L52.395 38.941L52.745 39.018V52.668L40.95 59.654Z" fill="#2F406A"/>
<path d="M28.9659 53.102V38.92H29.2949L40.8449 45.647L40.9429 45.913V59.6715L28.9659 53.102Z" fill="#2379BD"/>
<path d="M40.7574 31.941L28.9659 38.92L40.9499 45.8955L52.7414 39.018L40.7574 31.941Z" fill="#03AFEF"/>
<path d="M71.351 59.9795L71.0255 59.6295V46.3925L71.351 46.2245L71.4315 45.899L82.796 39.27L83.146 39.347V52.997L71.3545 59.9725" fill="#2F406A"/>
<path d="M59.3635 53.431V39.2455H59.6925L71.2425 45.9725L71.3405 46.2385V59.997L59.353 53.445" fill="#2379BD"/>
<path d="M71.155 32.27L59.3635 39.2455L71.351 46.221L83.1425 39.3435L71.155 32.27Z" fill="#03AFEF"/>
<path d="M56.6755 68.628L56.35 68.278V55.0375L56.6755 54.8695L56.756 54.544L68.1205 47.915L68.4705 47.992V61.642L56.679 68.6175" fill="#2F406A"/>
<path d="M44.688 62.076V47.894H45.017L56.567 54.621L56.665 54.887V68.6455L44.6775 62.0935" fill="#2379BD"/>
<path d="M56.4795 40.9185L44.688 47.894L56.6755 54.8695L68.467 47.992L56.4795 40.915" fill="#03AFEF"/>
</svg>
