<svg width="112" height="112" viewBox="0 0 112 112" fill="none" xmlns="http://www.w3.org/2000/svg">
<g clip-path="url(#clip0_339_33)">
<path d="M0 56V112H56H112V56V0H56H0V56Z" fill="#007ACC"/>
<path d="M24.7674 56.3715L24.7318 60.9582H32.0207L39.3096 60.9582V81.6693V102.38H44.4652H49.6207V81.6693L49.6207 60.9582H56.9096H64.1985V56.4604C64.1985 53.9715 64.1452 51.8915 64.074 51.8381C64.0207 51.767 55.1496 51.7315 44.394 51.7493L24.8207 51.8026L24.7674 56.3715Z" fill="white"/>
<path d="M90.3729 51.6724C93.2174 52.3835 95.3863 53.6458 97.3774 55.708C98.4085 56.8102 99.9374 58.8191 100.062 59.2991C100.097 59.4413 95.2263 62.7124 92.2752 64.5435C92.1685 64.6146 91.7418 64.1524 91.2618 63.4413C89.8218 61.3435 88.3107 60.4369 85.9996 60.2769C82.604 60.0458 80.4174 61.8235 80.4352 64.7924C80.4352 65.6635 80.5596 66.1791 80.9152 66.8902C81.6618 68.4369 83.0485 69.3613 87.404 71.2458C95.4218 74.6946 98.8529 76.9702 100.986 80.2058C103.368 83.8146 103.902 89.5746 102.284 93.8591C100.506 98.5169 96.0974 101.681 89.8929 102.73C87.9729 103.068 83.4218 103.015 81.3596 102.641C76.8618 101.841 72.5952 99.6191 69.964 96.7035C68.9329 95.5658 66.924 92.5969 67.0485 92.3835C67.1018 92.3124 67.564 92.028 68.0796 91.7258C68.5774 91.4413 70.4618 90.3569 72.2396 89.3258L75.4574 87.4591L76.1329 88.4546C77.0752 89.8946 79.1374 91.868 80.3818 92.5258C83.9552 94.4102 88.8618 94.1435 91.2796 91.9746C92.3107 91.0324 92.7374 90.0546 92.7374 88.6146C92.7374 87.3169 92.5774 86.748 91.9018 85.7702C91.0307 84.5258 89.2529 83.4769 84.204 81.2902C78.4263 78.8013 75.9374 77.2546 73.6618 74.8013C72.3463 73.3791 71.1018 71.1035 70.5863 69.2013C70.1596 67.6191 70.0529 63.6546 70.3907 62.0546C71.5818 56.4724 75.7952 52.5791 81.8752 51.4235C83.8485 51.0502 88.4352 51.1924 90.3729 51.6724Z" fill="white"/>
</g>
<defs>
<clipPath id="clip0_339_33">
<rect width="112" height="112" fill="white"/>
</clipPath>
</defs>
</svg>
